<svg version="1.1" xmlns="http://www.w3.org/2000/svg" width="32" height="32" viewBox="0 0 32 32">
<title>add random joke</title>
<path d="M27.998 22h-3.635c-1.271 0-2.482-0.477-3.411-1.344l-4.988-4.655 4.99-4.657c0.928-0.867 2.14-1.344 3.411-1.344h3.635v2l4-3-4-3v2h-3.635c-1.78 0-3.477 0.668-4.776 1.883l-11.54 10.771c-0.931 0.867-2.141 1.346-3.409 1.346-0.002 0-4.638 0-4.638 0v1.996l4.639 0.002c1.775 0 3.47-0.668 4.772-1.883l5.086-4.747 5.088 4.749c1.301 1.215 2.997 1.883 4.776 1.883h3.635v2l4-3-4-3c0 0 0 2 0 2z"></path>
<path d="M4.64 10.002c1.268 0 2.478 0.477 3.406 1.344l3.522 3.287 1.465-1.368-3.622-3.38c-1.301-1.215-2.995-1.883-4.771-1.883-0.003 0-0.006 0-0.009 0l-4.632 0.002v1.996h4.633c0.003 0 0.005 0.002 0.007 0.002z"></path>
</svg>
